<svg width="26" height="23" fill="none" xmlns="http://www.w3.org/2000/svg"><path d="M25.538 21.22l-1.666-15a1.405 1.405 0 00-1.398-1.25h-4.34a5.155 5.155 0 00-10.268 0h-4.34A1.405 1.405 0 002.13 6.22l-1.666 15a1.406 1.406 0 001.397 1.562h22.28a1.407 1.407 0 001.398-1.562zM13 1.22a4.224 4.224 0 014.192 3.75H8.808A4.224 4.224 0 0113 1.22zm11.49 20.468a.463.463 0 01-.35.156H1.86a.469.469 0 01-.466-.52l1.667-15a.468.468 0 01.466-.417h4.317v3.28a.469.469 0 10.938 0v-3.28h8.437v3.28a.469.469 0 00.938 0v-3.28h4.317a.468.468 0 01.466.417l1.666 15a.463.463 0 01-.116.364z" fill="#fff"/></svg>