<svg width="13" height="13" fill="none" xmlns="http://www.w3.org/2000/svg"><path d="M12 12.667c.551 0 1-.449 1-1V9.333c0-.551-.449-1-1-1a7.26 7.26 0 01-2.28-.364 1.015 1.015 0 00-1.016.242l-.96.96a9.77 9.77 0 01-3.923-3.922l.952-.958a.97.97 0 00.256-1.015A7.248 7.248 0 014.666 1c0-.551-.448-1-1-1H1.333c-.551 0-1 .449-1 1C.333 7.433 5.566 12.667 12 12.667zM1.333.667h2.333A.333.333 0 014 1c0 .851.133 1.687.395 2.48a.315.315 0 01-.085.331L3.006 5.122C4.098 7.274 5.71 8.886 7.872 9.987l1.299-1.3a.344.344 0 01.344-.084A7.89 7.89 0 0012 9c.183 0 .333.15.333.333v2.334c0 .183-.15.333-.333.333C5.934 12 1 7.065 1 1a.333.333 0 01.333-.333z" fill="#43FFD2"/></svg>